<svg xmlns="http://www.w3.org/2000/svg" viewBox="0 0 512 512">
  <defs>
    <linearGradient id="gold-fav" x1="0%" y1="0%" x2="100%" y2="100%">
      <stop offset="0%" style="stop-color:#FDE68A;stop-opacity:1" />
      <stop offset="20%" style="stop-color:#B45309;stop-opacity:1" />
      <stop offset="50%" style="stop-color:#FDE68A;stop-opacity:1" />
      <stop offset="80%" style="stop-color:#92400E;stop-opacity:1" />
      <stop offset="100%" style="stop-color:#78350F;stop-opacity:1" />
    </linearGradient>
  </defs>
  <rect width="512" height="512" rx="96" fill="#000000"/>
  <g fill="url(#gold-fav)">
    <path d="M175 125h110c60 0 85 30 85 75s-25 75-85 75h-25v30c40 15 80 50 140 105-30-10-70-40-140-55v55 c0 20 15 25 35 25h15v15h-150v-15h15c20 0 35-5 35-25V165c0-20-15-25-35-25h-15v-15z M260 250c30 0 45-15 45-37s-15-37-45-37h-25v74h25z" />
    <path d="M140 230c100-15 150 40 300 180-80-40-140-90-300-35z" />
  </g>
</svg>

